<svg width="94" height="71" viewBox="0 0 94 71" fill="none" xmlns="http://www.w3.org/2000/svg">
<path d="M90.2061 0.00488281C92.3194 0.112114 94 1.85996 94 4V67L93.9951 67.2061C93.8913 69.2512 92.2512 70.8913 90.2061 70.9951L90 71H4L3.79395 70.9951C1.7488 70.8913 0.108652 69.2512 0.00488281 67.2061L0 67V4C0 1.85996 1.68056 0.112114 3.79395 0.00488281L4 0H90L90.2061 0.00488281ZM2 67C2 68.1046 2.89543 69 4 69H90C91.1046 69 92 68.1046 92 67V17H2V67ZM85 44C85.5523 44 86 44.4477 86 45V63C86 63.5523 85.5523 64 85 64H9C8.44772 64 8 63.5523 8 63V45C8 44.4477 8.44772 44 9 44H85ZM85 20C85.5523 20 86 20.4477 86 21V39C86 39.5523 85.5523 40 85 40H52C51.4477 40 51 39.5523 51 39V21C51 20.4477 51.4477 20 52 20H85ZM27.125 22.0176C27.3917 22.0891 27.55 22.3632 27.4785 22.6299L23.3379 38.084C23.2665 38.3506 22.9922 38.5097 22.7256 38.4385C22.4589 38.367 22.3006 38.0919 22.3721 37.8252L26.5127 22.3711C26.5842 22.1044 26.8583 21.9462 27.125 22.0176ZM17.8184 22.5283C18.0136 22.3334 18.3302 22.3332 18.5254 22.5283C18.7203 22.7235 18.7203 23.0402 18.5254 23.2354L13 28.7607C12.219 29.5418 12.219 30.8078 13 31.5889L18.5254 37.1143C18.7203 37.3094 18.7203 37.6261 18.5254 37.8213C18.3302 38.0165 18.0136 38.0163 17.8184 37.8213L11.5859 31.5889C10.8049 30.8078 10.8049 29.5418 11.5859 28.7607L17.8184 22.5283ZM34.3174 22.5283C34.5126 22.3331 34.8292 22.3331 35.0244 22.5283L41.2568 28.7607C42.0378 29.5418 42.0378 30.8079 41.2568 31.5889L35.0244 37.8213C34.8292 38.0164 34.5126 38.0165 34.3174 37.8213C34.1222 37.6261 34.1223 37.3095 34.3174 37.1143L39.8428 31.5889C40.6237 30.8079 40.6237 29.5418 39.8428 28.7607L34.3174 23.2354C34.1222 23.0401 34.1223 22.7236 34.3174 22.5283ZM4 2C2.89543 2 2 2.89543 2 4V16H92V4C92 2.89543 91.1046 2 90 2H4ZM8 6C9.65685 6 11 7.34315 11 9C11 10.6569 9.65685 12 8 12C6.34315 12 5 10.6569 5 9C5 7.34315 6.34315 6 8 6ZM18 6C19.6569 6 21 7.34315 21 9C21 10.6569 19.6569 12 18 12C16.3431 12 15 10.6569 15 9C15 7.34315 16.3431 6 18 6ZM28 6C29.6569 6 31 7.34315 31 9C31 10.6569 29.6569 12 28 12C26.3431 12 25 10.6569 25 9C25 7.34315 26.3431 6 28 6Z" fill="#D9D9D9"/>
</svg>
