<svg width="94" height="71" viewBox="0 0 94 71" fill="none" xmlns="http://www.w3.org/2000/svg">
<path d="M90.2061 0.00488281C92.3194 0.112114 94 1.85996 94 4V67L93.9951 67.2061C93.8913 69.2512 92.2512 70.8913 90.2061 70.9951L90 71H4L3.79395 70.9951C1.7488 70.8913 0.108652 69.2512 0.00488281 67.2061L0 67V4C0 1.85996 1.68056 0.112114 3.79395 0.00488281L4 0H90L90.2061 0.00488281ZM2 67C2 68.1046 2.89543 69 4 69H90C91.1046 69 92 68.1046 92 67V17H2V67ZM46.6777 27.6533C46.8037 27.1834 47.2869 26.9046 47.7568 27.0303C48.2269 27.1562 48.5058 27.6393 48.3799 28.1094L41.082 55.3467C40.9561 55.8167 40.473 56.0957 40.0029 55.9697C39.5329 55.8438 39.254 55.3607 39.3799 54.8906L46.6777 27.6533ZM31.624 27.6621C31.8193 27.4669 32.1358 27.4669 32.3311 27.6621C32.5259 27.8574 32.5262 28.174 32.3311 28.3691L20.707 39.9922C19.926 40.7732 19.926 42.0402 20.707 42.8213L32.3311 54.4453C32.5261 54.6404 32.5259 54.9571 32.3311 55.1523C32.1358 55.3476 31.8193 55.3476 31.624 55.1523L18.5859 42.1152L17.8779 41.4082V41.4062L18.5859 40.7002L31.624 27.6621ZM60.7031 27.6611C60.8983 27.4662 61.215 27.4661 61.4102 27.6611L74.4482 40.7002L74.9482 41.1992C75.0625 41.3135 75.0623 41.4989 74.9482 41.6133L61.4102 55.1523C61.2148 55.3474 60.8984 55.3475 60.7031 55.1523C60.508 54.9569 60.5078 54.6396 60.7031 54.4443L72.3271 42.8213C73.1078 42.0402 73.108 40.7741 72.3271 39.9932L60.7031 28.3682C60.508 28.1729 60.5079 27.8563 60.7031 27.6611ZM4 2C2.89543 2 2 2.89543 2 4V16H92V4C92 2.89543 91.1046 2 90 2H4ZM8 6C9.65685 6 11 7.34315 11 9C11 10.6569 9.65685 12 8 12C6.34315 12 5 10.6569 5 9C5 7.34315 6.34315 6 8 6ZM18 6C19.6569 6 21 7.34315 21 9C21 10.6569 19.6569 12 18 12C16.3431 12 15 10.6569 15 9C15 7.34315 16.3431 6 18 6ZM28 6C29.6569 6 31 7.34315 31 9C31 10.6569 29.6569 12 28 12C26.3431 12 25 10.6569 25 9C25 7.34315 26.3431 6 28 6Z" fill="#D9D9D9"/>
</svg>
