<svg width="39" height="39" viewBox="0 0 39 39" fill="none" xmlns="http://www.w3.org/2000/svg">
<path d="M37.2041 0.0107422C38.2128 0.113005 39 0.964349 39 2V37L38.9893 37.2041C38.8938 38.1457 38.1457 38.8938 37.2041 38.9893L37 39H2L1.7959 38.9893C0.854346 38.8938 0.1062 38.1457 0.0107422 37.2041L0 37V2C0 0.964349 0.787223 0.113005 1.7959 0.0107422L2 0H37L37.2041 0.0107422ZM2 1C1.44772 1 1 1.44772 1 2V37C1 37.5523 1.44772 38 2 38H37C37.5523 38 38 37.5523 38 37V2C38 1.44772 37.5523 1 37 1H2ZM23.9287 12.9287C24.3191 12.5383 24.9522 12.5385 25.3428 12.9287L31.707 19.293C32.0976 19.6835 32.0976 20.3165 31.707 20.707L25.3428 27.0713C24.9522 27.4615 24.3191 27.4617 23.9287 27.0713C23.5383 26.6809 23.5385 26.0478 23.9287 25.6572L28.5859 21H7V19H28.5859L23.9287 14.3428C23.5385 13.9522 23.5383 13.3191 23.9287 12.9287Z" fill="white" fill-opacity="0.74"/>
</svg>
